<mxfile host="app.diagrams.net" modified="2023-11-12T23:33:29.131Z" agent="Mozilla/5.0 (Macintosh; Intel Mac OS X 10_15_7) AppleWebKit/537.36 (KHTML, like Gecko) Chrome/119.0.0.0 Safari/537.36" etag="9wog_EUKS4RF3JeXT__g" version="22.1.0" type="device">
  <diagram name="Página-1" id="k5brcaaiVkuDlQpw-D_l">
    <mxGraphModel dx="1372" dy="641" grid="1" gridSize="10" guides="1" tooltips="1" connect="1" arrows="1" fold="1" page="1" pageScale="1" pageWidth="827" pageHeight="1169" math="0" shadow="0">
      <root>
        <mxCell id="0" />
        <mxCell id="1" parent="0" />
        <mxCell id="gqMmGl-cBEtmpJwYJXRR-1" value="Piloto" style="rounded=0;whiteSpace=wrap;html=1;" vertex="1" parent="1">
          <mxGeometry x="270" y="240" width="120" height="60" as="geometry" />
        </mxCell>
        <mxCell id="gqMmGl-cBEtmpJwYJXRR-2" value="Engenheiro" style="rounded=0;whiteSpace=wrap;html=1;" vertex="1" parent="1">
          <mxGeometry x="60" y="120" width="120" height="60" as="geometry" />
        </mxCell>
        <mxCell id="gqMmGl-cBEtmpJwYJXRR-3" value="Equipa" style="rounded=0;whiteSpace=wrap;html=1;" vertex="1" parent="1">
          <mxGeometry x="270" y="120" width="120" height="60" as="geometry" />
        </mxCell>
        <mxCell id="gqMmGl-cBEtmpJwYJXRR-4" value="Treino" style="rounded=0;whiteSpace=wrap;html=1;" vertex="1" parent="1">
          <mxGeometry x="480" y="110" width="120" height="60" as="geometry" />
        </mxCell>
        <mxCell id="gqMmGl-cBEtmpJwYJXRR-5" value="Qualificação" style="rounded=0;whiteSpace=wrap;html=1;" vertex="1" parent="1">
          <mxGeometry x="690" y="110" width="120" height="60" as="geometry" />
        </mxCell>
        <mxCell id="gqMmGl-cBEtmpJwYJXRR-6" value="Corridas" style="rounded=0;whiteSpace=wrap;html=1;" vertex="1" parent="1">
          <mxGeometry x="490" y="240" width="120" height="60" as="geometry" />
        </mxCell>
        <mxCell id="gqMmGl-cBEtmpJwYJXRR-7" value="cricuito" style="rounded=0;whiteSpace=wrap;html=1;" vertex="1" parent="1">
          <mxGeometry x="670" y="240" width="120" height="60" as="geometry" />
        </mxCell>
        <mxCell id="gqMmGl-cBEtmpJwYJXRR-8" value="" style="endArrow=none;html=1;rounded=0;entryX=0.5;entryY=0;entryDx=0;entryDy=0;exitX=0.5;exitY=1;exitDx=0;exitDy=0;" edge="1" parent="1" source="gqMmGl-cBEtmpJwYJXRR-3" target="gqMmGl-cBEtmpJwYJXRR-1">
          <mxGeometry width="50" height="50" relative="1" as="geometry">
            <mxPoint x="290" y="250" as="sourcePoint" />
            <mxPoint x="440" y="310" as="targetPoint" />
          </mxGeometry>
        </mxCell>
        <mxCell id="gqMmGl-cBEtmpJwYJXRR-9" value="1" style="text;html=1;align=center;verticalAlign=middle;resizable=0;points=[];autosize=1;strokeColor=none;fillColor=none;" vertex="1" parent="1">
          <mxGeometry x="310" y="173" width="30" height="30" as="geometry" />
        </mxCell>
        <mxCell id="gqMmGl-cBEtmpJwYJXRR-10" value="N" style="text;html=1;align=center;verticalAlign=middle;resizable=0;points=[];autosize=1;strokeColor=none;fillColor=none;" vertex="1" parent="1">
          <mxGeometry x="307" y="208" width="30" height="30" as="geometry" />
        </mxCell>
        <mxCell id="gqMmGl-cBEtmpJwYJXRR-13" value="" style="endArrow=none;html=1;rounded=0;entryX=0.375;entryY=0.033;entryDx=0;entryDy=0;exitX=0.5;exitY=1;exitDx=0;exitDy=0;entryPerimeter=0;" edge="1" parent="1" source="gqMmGl-cBEtmpJwYJXRR-4" target="gqMmGl-cBEtmpJwYJXRR-6">
          <mxGeometry width="50" height="50" relative="1" as="geometry">
            <mxPoint x="430" y="260" as="sourcePoint" />
            <mxPoint x="600" y="260" as="targetPoint" />
          </mxGeometry>
        </mxCell>
        <mxCell id="gqMmGl-cBEtmpJwYJXRR-14" value="" style="endArrow=none;html=1;rounded=0;entryX=0.75;entryY=0;entryDx=0;entryDy=0;exitX=0.5;exitY=1;exitDx=0;exitDy=0;" edge="1" parent="1" source="gqMmGl-cBEtmpJwYJXRR-5" target="gqMmGl-cBEtmpJwYJXRR-6">
          <mxGeometry width="50" height="50" relative="1" as="geometry">
            <mxPoint x="580" y="180" as="sourcePoint" />
            <mxPoint x="630" y="230" as="targetPoint" />
          </mxGeometry>
        </mxCell>
        <mxCell id="gqMmGl-cBEtmpJwYJXRR-15" value="" style="endArrow=none;html=1;rounded=0;entryX=1;entryY=0.5;entryDx=0;entryDy=0;exitX=0;exitY=0.5;exitDx=0;exitDy=0;" edge="1" parent="1" source="gqMmGl-cBEtmpJwYJXRR-7" target="gqMmGl-cBEtmpJwYJXRR-6">
          <mxGeometry width="50" height="50" relative="1" as="geometry">
            <mxPoint x="760" y="180" as="sourcePoint" />
            <mxPoint x="690" y="230" as="targetPoint" />
          </mxGeometry>
        </mxCell>
        <mxCell id="gqMmGl-cBEtmpJwYJXRR-16" value="idPiloto" style="text;html=1;strokeColor=none;fillColor=none;align=center;verticalAlign=middle;whiteSpace=wrap;rounded=0;" vertex="1" parent="1">
          <mxGeometry x="307" y="310" width="60" height="30" as="geometry" />
        </mxCell>
        <mxCell id="gqMmGl-cBEtmpJwYJXRR-17" value="nome" style="text;html=1;strokeColor=none;fillColor=none;align=center;verticalAlign=middle;whiteSpace=wrap;rounded=0;" vertex="1" parent="1">
          <mxGeometry x="307" y="330" width="60" height="30" as="geometry" />
        </mxCell>
        <mxCell id="gqMmGl-cBEtmpJwYJXRR-18" value="dataNascimento" style="text;html=1;strokeColor=none;fillColor=none;align=center;verticalAlign=middle;whiteSpace=wrap;rounded=0;" vertex="1" parent="1">
          <mxGeometry x="307" y="350" width="60" height="30" as="geometry" />
        </mxCell>
        <mxCell id="gqMmGl-cBEtmpJwYJXRR-20" value="nacionalidade" style="text;html=1;strokeColor=none;fillColor=none;align=center;verticalAlign=middle;whiteSpace=wrap;rounded=0;" vertex="1" parent="1">
          <mxGeometry x="307" y="375" width="60" height="30" as="geometry" />
        </mxCell>
        <mxCell id="gqMmGl-cBEtmpJwYJXRR-21" value="idEquipa" style="text;html=1;strokeColor=none;fillColor=none;align=center;verticalAlign=middle;whiteSpace=wrap;rounded=0;" vertex="1" parent="1">
          <mxGeometry x="295" y="45" width="60" height="30" as="geometry" />
        </mxCell>
        <mxCell id="gqMmGl-cBEtmpJwYJXRR-22" value="nome" style="text;html=1;strokeColor=none;fillColor=none;align=center;verticalAlign=middle;whiteSpace=wrap;rounded=0;" vertex="1" parent="1">
          <mxGeometry x="295" y="65" width="60" height="30" as="geometry" />
        </mxCell>
        <mxCell id="gqMmGl-cBEtmpJwYJXRR-29" value="idTreino" style="text;html=1;strokeColor=none;fillColor=none;align=center;verticalAlign=middle;whiteSpace=wrap;rounded=0;" vertex="1" parent="1">
          <mxGeometry x="530" y="30" width="60" height="30" as="geometry" />
        </mxCell>
        <mxCell id="gqMmGl-cBEtmpJwYJXRR-30" value="hora" style="text;html=1;strokeColor=none;fillColor=none;align=center;verticalAlign=middle;whiteSpace=wrap;rounded=0;" vertex="1" parent="1">
          <mxGeometry x="530" y="50" width="60" height="30" as="geometry" />
        </mxCell>
        <mxCell id="gqMmGl-cBEtmpJwYJXRR-31" value="tempos" style="text;html=1;strokeColor=none;fillColor=none;align=center;verticalAlign=middle;whiteSpace=wrap;rounded=0;" vertex="1" parent="1">
          <mxGeometry x="530" y="70" width="60" height="30" as="geometry" />
        </mxCell>
        <mxCell id="gqMmGl-cBEtmpJwYJXRR-32" value="idEngenheiro" style="text;html=1;strokeColor=none;fillColor=none;align=center;verticalAlign=middle;whiteSpace=wrap;rounded=0;" vertex="1" parent="1">
          <mxGeometry x="100" y="15" width="60" height="30" as="geometry" />
        </mxCell>
        <mxCell id="gqMmGl-cBEtmpJwYJXRR-33" value="nome" style="text;html=1;strokeColor=none;fillColor=none;align=center;verticalAlign=middle;whiteSpace=wrap;rounded=0;" vertex="1" parent="1">
          <mxGeometry x="100" y="35" width="60" height="30" as="geometry" />
        </mxCell>
        <mxCell id="gqMmGl-cBEtmpJwYJXRR-34" value="dataNascimento" style="text;html=1;strokeColor=none;fillColor=none;align=center;verticalAlign=middle;whiteSpace=wrap;rounded=0;" vertex="1" parent="1">
          <mxGeometry x="100" y="55" width="60" height="30" as="geometry" />
        </mxCell>
        <mxCell id="gqMmGl-cBEtmpJwYJXRR-35" value="nacionalidade" style="text;html=1;strokeColor=none;fillColor=none;align=center;verticalAlign=middle;whiteSpace=wrap;rounded=0;" vertex="1" parent="1">
          <mxGeometry x="100" y="80" width="60" height="30" as="geometry" />
        </mxCell>
        <mxCell id="gqMmGl-cBEtmpJwYJXRR-40" value="idQualificacao" style="text;html=1;strokeColor=none;fillColor=none;align=center;verticalAlign=middle;whiteSpace=wrap;rounded=0;" vertex="1" parent="1">
          <mxGeometry x="730" y="41.25" width="60" height="30" as="geometry" />
        </mxCell>
        <mxCell id="gqMmGl-cBEtmpJwYJXRR-41" value="hora" style="text;html=1;strokeColor=none;fillColor=none;align=center;verticalAlign=middle;whiteSpace=wrap;rounded=0;" vertex="1" parent="1">
          <mxGeometry x="730" y="58.75" width="60" height="30" as="geometry" />
        </mxCell>
        <mxCell id="gqMmGl-cBEtmpJwYJXRR-43" value="tempos" style="text;html=1;strokeColor=none;fillColor=none;align=center;verticalAlign=middle;whiteSpace=wrap;rounded=0;" vertex="1" parent="1">
          <mxGeometry x="730" y="77.5" width="60" height="30" as="geometry" />
        </mxCell>
        <mxCell id="gqMmGl-cBEtmpJwYJXRR-44" value="idCorrida" style="text;html=1;strokeColor=none;fillColor=none;align=center;verticalAlign=middle;whiteSpace=wrap;rounded=0;" vertex="1" parent="1">
          <mxGeometry x="530" y="310" width="60" height="30" as="geometry" />
        </mxCell>
        <mxCell id="gqMmGl-cBEtmpJwYJXRR-45" value="nome" style="text;html=1;strokeColor=none;fillColor=none;align=center;verticalAlign=middle;whiteSpace=wrap;rounded=0;" vertex="1" parent="1">
          <mxGeometry x="530" y="330" width="60" height="30" as="geometry" />
        </mxCell>
        <mxCell id="gqMmGl-cBEtmpJwYJXRR-46" value="tempos" style="text;html=1;strokeColor=none;fillColor=none;align=center;verticalAlign=middle;whiteSpace=wrap;rounded=0;" vertex="1" parent="1">
          <mxGeometry x="530" y="350" width="60" height="30" as="geometry" />
        </mxCell>
        <mxCell id="gqMmGl-cBEtmpJwYJXRR-48" value="idCircuito" style="text;html=1;strokeColor=none;fillColor=none;align=center;verticalAlign=middle;whiteSpace=wrap;rounded=0;" vertex="1" parent="1">
          <mxGeometry x="700" y="310" width="60" height="30" as="geometry" />
        </mxCell>
        <mxCell id="gqMmGl-cBEtmpJwYJXRR-49" value="nome" style="text;html=1;strokeColor=none;fillColor=none;align=center;verticalAlign=middle;whiteSpace=wrap;rounded=0;" vertex="1" parent="1">
          <mxGeometry x="700" y="330" width="60" height="30" as="geometry" />
        </mxCell>
        <mxCell id="gqMmGl-cBEtmpJwYJXRR-52" value="" style="endArrow=none;html=1;rounded=0;entryX=1;entryY=0.5;entryDx=0;entryDy=0;exitX=0;exitY=0.5;exitDx=0;exitDy=0;" edge="1" parent="1" source="gqMmGl-cBEtmpJwYJXRR-3" target="gqMmGl-cBEtmpJwYJXRR-2">
          <mxGeometry width="50" height="50" relative="1" as="geometry">
            <mxPoint x="390" y="360" as="sourcePoint" />
            <mxPoint x="440" y="310" as="targetPoint" />
          </mxGeometry>
        </mxCell>
        <mxCell id="gqMmGl-cBEtmpJwYJXRR-54" value="N" style="text;html=1;align=center;verticalAlign=middle;resizable=0;points=[];autosize=1;strokeColor=none;fillColor=none;" vertex="1" parent="1">
          <mxGeometry x="175" y="128" width="30" height="30" as="geometry" />
        </mxCell>
        <mxCell id="gqMmGl-cBEtmpJwYJXRR-55" value="1" style="text;html=1;align=center;verticalAlign=middle;resizable=0;points=[];autosize=1;strokeColor=none;fillColor=none;" vertex="1" parent="1">
          <mxGeometry x="245" y="128" width="30" height="30" as="geometry" />
        </mxCell>
        <mxCell id="gqMmGl-cBEtmpJwYJXRR-56" value="N" style="text;html=1;align=center;verticalAlign=middle;resizable=0;points=[];autosize=1;strokeColor=none;fillColor=none;" vertex="1" parent="1">
          <mxGeometry x="515" y="170" width="30" height="30" as="geometry" />
        </mxCell>
        <mxCell id="gqMmGl-cBEtmpJwYJXRR-57" value="N" style="text;html=1;align=center;verticalAlign=middle;resizable=0;points=[];autosize=1;strokeColor=none;fillColor=none;" vertex="1" parent="1">
          <mxGeometry x="510" y="217" width="30" height="30" as="geometry" />
        </mxCell>
        <mxCell id="gqMmGl-cBEtmpJwYJXRR-58" value="N" style="text;html=1;align=center;verticalAlign=middle;resizable=0;points=[];autosize=1;strokeColor=none;fillColor=none;" vertex="1" parent="1">
          <mxGeometry x="570" y="210" width="30" height="30" as="geometry" />
        </mxCell>
        <mxCell id="gqMmGl-cBEtmpJwYJXRR-60" value="País" style="rounded=0;whiteSpace=wrap;html=1;" vertex="1" parent="1">
          <mxGeometry x="850" y="240" width="120" height="60" as="geometry" />
        </mxCell>
        <mxCell id="gqMmGl-cBEtmpJwYJXRR-61" value="" style="endArrow=none;html=1;rounded=0;entryX=1;entryY=0.5;entryDx=0;entryDy=0;exitX=0;exitY=0.5;exitDx=0;exitDy=0;" edge="1" parent="1" source="gqMmGl-cBEtmpJwYJXRR-60" target="gqMmGl-cBEtmpJwYJXRR-7">
          <mxGeometry width="50" height="50" relative="1" as="geometry">
            <mxPoint x="390" y="360" as="sourcePoint" />
            <mxPoint x="440" y="310" as="targetPoint" />
          </mxGeometry>
        </mxCell>
        <mxCell id="gqMmGl-cBEtmpJwYJXRR-62" value="" style="endArrow=none;html=1;rounded=0;entryX=1;entryY=0.5;entryDx=0;entryDy=0;" edge="1" parent="1" target="gqMmGl-cBEtmpJwYJXRR-1">
          <mxGeometry width="50" height="50" relative="1" as="geometry">
            <mxPoint x="490" y="270" as="sourcePoint" />
            <mxPoint x="440" y="310" as="targetPoint" />
          </mxGeometry>
        </mxCell>
        <mxCell id="gqMmGl-cBEtmpJwYJXRR-63" value="N" style="text;html=1;align=center;verticalAlign=middle;resizable=0;points=[];autosize=1;strokeColor=none;fillColor=none;" vertex="1" parent="1">
          <mxGeometry x="460" y="247" width="30" height="30" as="geometry" />
        </mxCell>
        <mxCell id="gqMmGl-cBEtmpJwYJXRR-64" value="N" style="text;html=1;align=center;verticalAlign=middle;resizable=0;points=[];autosize=1;strokeColor=none;fillColor=none;" vertex="1" parent="1">
          <mxGeometry x="390" y="247" width="30" height="30" as="geometry" />
        </mxCell>
        <mxCell id="gqMmGl-cBEtmpJwYJXRR-67" value="Text" style="text;html=1;align=center;verticalAlign=middle;resizable=0;points=[];autosize=1;strokeColor=none;fillColor=none;" vertex="1" parent="1">
          <mxGeometry x="885" y="318" width="50" height="30" as="geometry" />
        </mxCell>
        <mxCell id="gqMmGl-cBEtmpJwYJXRR-68" value="1" style="text;html=1;align=center;verticalAlign=middle;resizable=0;points=[];autosize=1;strokeColor=none;fillColor=none;" vertex="1" parent="1">
          <mxGeometry x="705" y="161" width="30" height="30" as="geometry" />
        </mxCell>
        <mxCell id="gqMmGl-cBEtmpJwYJXRR-69" value="N" style="text;html=1;align=center;verticalAlign=middle;resizable=0;points=[];autosize=1;strokeColor=none;fillColor=none;" vertex="1" parent="1">
          <mxGeometry x="600" y="247" width="30" height="30" as="geometry" />
        </mxCell>
        <mxCell id="gqMmGl-cBEtmpJwYJXRR-70" value="N" style="text;html=1;align=center;verticalAlign=middle;resizable=0;points=[];autosize=1;strokeColor=none;fillColor=none;" vertex="1" parent="1">
          <mxGeometry x="780" y="247" width="30" height="30" as="geometry" />
        </mxCell>
        <mxCell id="gqMmGl-cBEtmpJwYJXRR-71" value="1" style="text;html=1;align=center;verticalAlign=middle;resizable=0;points=[];autosize=1;strokeColor=none;fillColor=none;" vertex="1" parent="1">
          <mxGeometry x="640" y="247" width="30" height="30" as="geometry" />
        </mxCell>
        <mxCell id="gqMmGl-cBEtmpJwYJXRR-72" value="1" style="text;html=1;align=center;verticalAlign=middle;resizable=0;points=[];autosize=1;strokeColor=none;fillColor=none;" vertex="1" parent="1">
          <mxGeometry x="827" y="247" width="30" height="30" as="geometry" />
        </mxCell>
      </root>
    </mxGraphModel>
  </diagram>
</mxfile>
